<?xml version="1.0" encoding="UTF-8" standalone="no"?>
<!DOCTYPE svg PUBLIC "-//W3C//DTD SVG 1.1//EN"
 "http://www.w3.org/Graphics/SVG/1.1/DTD/svg11.dtd">
<!-- Generated by graphviz version 2.43.0 (0)
 -->
<!-- Title: %3 Pages: 1 -->
<svg width="1285pt" height="1984pt"
 viewBox="0.00 0.00 1284.71 1984.00" xmlns="http://www.w3.org/2000/svg" xmlns:xlink="http://www.w3.org/1999/xlink">
<g id="graph0" class="graph" transform="scale(1 1) rotate(0) translate(4 1980)">
<title>%3</title>
<polygon fill="white" stroke="transparent" points="-4,4 -4,-1980 1280.71,-1980 1280.71,4 -4,4"/>
<text text-anchor="middle" x="638.35" y="-97.8" font-family="Times,serif" font-size="14.00">Namespaces:</text>
<text text-anchor="middle" x="638.35" y="-82.8" font-family="Times,serif" font-size="14.00">https://semantiweb&#45;cottagebooking.azurewebsites.net/task6/ontology.owl#</text>
<text text-anchor="middle" x="638.35" y="-67.8" font-family="Times,serif" font-size="14.00">owl: http://www.w3.org/2002/07/owl#</text>
<text text-anchor="middle" x="638.35" y="-52.8" font-family="Times,serif" font-size="14.00">rdf: http://www.w3.org/1999/02/22&#45;rdf&#45;syntax&#45;ns#</text>
<text text-anchor="middle" x="638.35" y="-37.8" font-family="Times,serif" font-size="14.00">xml: http://www.w3.org/XML/1998/namespace</text>
<text text-anchor="middle" x="638.35" y="-22.8" font-family="Times,serif" font-size="14.00">xsd: http://www.w3.org/2001/XMLSchema#</text>
<text text-anchor="middle" x="638.35" y="-7.8" font-family="Times,serif" font-size="14.00">rdfs: http://www.w3.org/2000/01/rdf&#45;schema#</text>
<!-- Rhttps://semantiweb&#45;cottagebooking.azurewebsites.net/task6/ontology.owl -->
<g id="node1" class="node">
<title>Rhttps://semantiweb&#45;cottagebooking.azurewebsites.net/task6/ontology.owl</title>
<ellipse fill="none" stroke="blue" cx="350.32" cy="-147" rx="350.14" ry="18"/>
<text text-anchor="middle" x="350.32" y="-143.3" font-family="Times,serif" font-size="14.00">https://semantiweb&#45;cottagebooking.azurewebsites.net/task6/ontology.owl</text>
</g>
<!-- Rowl:Ontology -->
<g id="node2" class="node">
<title>Rowl:Ontology</title>
<ellipse fill="none" stroke="blue" cx="945.48" cy="-147" rx="71.49" ry="18"/>
<text text-anchor="middle" x="945.48" y="-143.3" font-family="Times,serif" font-size="14.00">owl:Ontology</text>
</g>
<!-- Rhttps://semantiweb&#45;cottagebooking.azurewebsites.net/task6/ontology.owl&#45;&gt;Rowl:Ontology -->
<g id="edge1" class="edge">
<title>Rhttps://semantiweb&#45;cottagebooking.azurewebsites.net/task6/ontology.owl&#45;&gt;Rowl:Ontology</title>
<path fill="none" stroke="black" d="M700.65,-147C761.78,-147 819.82,-147 863.93,-147"/>
<polygon fill="black" stroke="black" points="863.98,-150.5 873.98,-147 863.98,-143.5 863.98,-150.5"/>
<text text-anchor="middle" x="761.64" y="-150.8" font-family="Times,serif" font-size="14.00">rdf:type</text>
</g>
<!-- RCottage -->
<g id="node3" class="node">
<title>RCottage</title>
<ellipse fill="none" stroke="blue" cx="945.48" cy="-628" rx="47.39" ry="18"/>
<text text-anchor="middle" x="945.48" y="-624.3" font-family="Times,serif" font-size="14.00">Cottage</text>
</g>
<!-- Rrdfs:Class -->
<g id="node4" class="node">
<title>Rrdfs:Class</title>
<ellipse fill="none" stroke="blue" cx="1219.51" cy="-1572" rx="57.39" ry="18"/>
<text text-anchor="middle" x="1219.51" y="-1568.3" font-family="Times,serif" font-size="14.00">rdfs:Class</text>
</g>
<!-- RCottage&#45;&gt;Rrdfs:Class -->
<g id="edge2" class="edge">
<title>RCottage&#45;&gt;Rrdfs:Class</title>
<path fill="none" stroke="black" d="M980.83,-640.22C1008.94,-652.07 1047.37,-672.87 1068.32,-704 1164.43,-846.86 1207.66,-1409.93 1216.68,-1543.48"/>
<polygon fill="black" stroke="black" points="1213.21,-1543.96 1217.36,-1553.71 1220.19,-1543.5 1213.21,-1543.96"/>
<text text-anchor="middle" x="1115.32" y="-922.8" font-family="Times,serif" font-size="14.00">rdf:type</text>
</g>
<!-- RBookingRequest -->
<g id="node5" class="node">
<title>RBookingRequest</title>
<ellipse fill="none" stroke="blue" cx="945.48" cy="-1876" rx="86.38" ry="18"/>
<text text-anchor="middle" x="945.48" y="-1872.3" font-family="Times,serif" font-size="14.00">BookingRequest</text>
</g>
<!-- RBookingRequest&#45;&gt;Rrdfs:Class -->
<g id="edge3" class="edge">
<title>RBookingRequest&#45;&gt;Rrdfs:Class</title>
<path fill="none" stroke="black" d="M962.28,-1858.34C1008.4,-1806.8 1142.95,-1656.44 1196.32,-1596.8"/>
<polygon fill="black" stroke="black" points="1198.94,-1599.11 1203,-1589.33 1193.73,-1594.45 1198.94,-1599.11"/>
<text text-anchor="middle" x="1115.32" y="-1717.8" font-family="Times,serif" font-size="14.00">rdf:type</text>
</g>
<!-- RBooking -->
<g id="node6" class="node">
<title>RBooking</title>
<ellipse fill="none" stroke="blue" cx="945.48" cy="-1572" rx="48.19" ry="18"/>
<text text-anchor="middle" x="945.48" y="-1568.3" font-family="Times,serif" font-size="14.00">Booking</text>
</g>
<!-- RBooking&#45;&gt;Rrdfs:Class -->
<g id="edge4" class="edge">
<title>RBooking&#45;&gt;Rrdfs:Class</title>
<path fill="none" stroke="black" d="M993.86,-1572C1037.63,-1572 1103.1,-1572 1152.08,-1572"/>
<polygon fill="black" stroke="black" points="1152.27,-1575.5 1162.27,-1572 1152.27,-1568.5 1152.27,-1575.5"/>
<text text-anchor="middle" x="1115.32" y="-1575.8" font-family="Times,serif" font-size="14.00">rdf:type</text>
</g>
<!-- RhasCottage -->
<g id="node7" class="node">
<title>RhasCottage</title>
<ellipse fill="none" stroke="blue" cx="350.32" cy="-1211" rx="63.89" ry="18"/>
<text text-anchor="middle" x="350.32" y="-1207.3" font-family="Times,serif" font-size="14.00">hasCottage</text>
</g>
<!-- RhasCottage&#45;&gt;RCottage -->
<g id="edge7" class="edge">
<title>RhasCottage&#45;&gt;RCottage</title>
<path fill="none" stroke="black" d="M409.91,-1204.47C529.48,-1190.87 791.51,-1159.57 804.64,-1145 837.47,-1108.57 797.98,-746.39 822.64,-704 839.52,-674.99 872.34,-655.47 899.67,-643.49"/>
<polygon fill="black" stroke="black" points="901.19,-646.64 909.07,-639.56 898.49,-640.19 901.19,-646.64"/>
<text text-anchor="middle" x="761.64" y="-1168.8" font-family="Times,serif" font-size="14.00">rdfs:range</text>
</g>
<!-- RhasCottage&#45;&gt;RBooking -->
<g id="edge6" class="edge">
<title>RhasCottage&#45;&gt;RBooking</title>
<path fill="none" stroke="black" d="M414.12,-1210.37C490.55,-1212.92 619.42,-1228.3 700.64,-1298 716.36,-1311.49 703.03,-1327.37 718.64,-1341 748.44,-1367.02 777.9,-1334.84 804.64,-1364 835.75,-1397.93 799.98,-1425.93 822.64,-1466 843.31,-1502.56 881.51,-1532.62 909.64,-1551.28"/>
<polygon fill="black" stroke="black" points="908.09,-1554.44 918.38,-1556.93 911.88,-1548.56 908.09,-1554.44"/>
<text text-anchor="middle" x="761.64" y="-1367.8" font-family="Times,serif" font-size="14.00">rdfs:domain</text>
</g>
<!-- Rrdf:Property -->
<g id="node8" class="node">
<title>Rrdf:Property</title>
<ellipse fill="none" stroke="blue" cx="945.48" cy="-1032" rx="68.49" ry="18"/>
<text text-anchor="middle" x="945.48" y="-1028.3" font-family="Times,serif" font-size="14.00">rdf:Property</text>
</g>
<!-- RhasCottage&#45;&gt;Rrdf:Property -->
<g id="edge5" class="edge">
<title>RhasCottage&#45;&gt;Rrdf:Property</title>
<path fill="none" stroke="black" d="M413.97,-1212.1C531.41,-1213.56 775.49,-1213.56 804.64,-1189 832.84,-1165.23 801.33,-1138.1 822.64,-1108 840.79,-1082.35 870.59,-1063.54 896.18,-1051.05"/>
<polygon fill="black" stroke="black" points="897.82,-1054.14 905.39,-1046.73 894.85,-1047.81 897.82,-1054.14"/>
<text text-anchor="middle" x="761.64" y="-1209.8" font-family="Times,serif" font-size="14.00">rdf:type</text>
</g>
<!-- RbookingProposals -->
<g id="node9" class="node">
<title>RbookingProposals</title>
<ellipse fill="none" stroke="blue" cx="350.32" cy="-1895" rx="92.88" ry="18"/>
<text text-anchor="middle" x="350.32" y="-1891.3" font-family="Times,serif" font-size="14.00">bookingProposals</text>
</g>
<!-- RbookingProposals&#45;&gt;RBookingRequest -->
<g id="edge9" class="edge">
<title>RbookingProposals&#45;&gt;RBookingRequest</title>
<path fill="none" stroke="black" d="M396.04,-1910.76C478.11,-1937.38 657.81,-1985.02 804.64,-1949 844,-1939.34 884.58,-1916.46 911.82,-1898.86"/>
<polygon fill="black" stroke="black" points="913.75,-1901.78 920.18,-1893.36 909.9,-1895.94 913.75,-1901.78"/>
<text text-anchor="middle" x="761.64" y="-1964.8" font-family="Times,serif" font-size="14.00">rdfs:domain</text>
</g>
<!-- RbookingProposals&#45;&gt;RBooking -->
<g id="edge10" class="edge">
<title>RbookingProposals&#45;&gt;RBooking</title>
<path fill="none" stroke="black" d="M443.03,-1896.85C567.98,-1898.42 779.19,-1897.37 804.64,-1873 836.07,-1842.91 802.8,-1716.73 822.64,-1678 841.87,-1640.46 880.57,-1610.44 909.22,-1592.06"/>
<polygon fill="black" stroke="black" points="911.13,-1595 917.76,-1586.73 907.42,-1589.06 911.13,-1595"/>
<text text-anchor="middle" x="761.64" y="-1893.8" font-family="Times,serif" font-size="14.00">rdfs:range</text>
</g>
<!-- RbookingProposals&#45;&gt;Rrdf:Property -->
<g id="edge8" class="edge">
<title>RbookingProposals&#45;&gt;Rrdf:Property</title>
<path fill="none" stroke="black" d="M433.5,-1886.89C560.78,-1873.94 792.36,-1848.67 804.64,-1835 831.64,-1804.95 802.6,-1143.08 822.64,-1108 838,-1081.1 867.15,-1062.41 893.08,-1050.3"/>
<polygon fill="black" stroke="black" points="894.74,-1053.39 902.46,-1046.13 891.9,-1046.99 894.74,-1053.39"/>
<text text-anchor="middle" x="761.64" y="-1856.8" font-family="Times,serif" font-size="14.00">rdf:type</text>
</g>
<!-- Rbookings -->
<g id="node10" class="node">
<title>Rbookings</title>
<ellipse fill="none" stroke="blue" cx="350.32" cy="-1781" rx="51.99" ry="18"/>
<text text-anchor="middle" x="350.32" y="-1777.3" font-family="Times,serif" font-size="14.00">bookings</text>
</g>
<!-- Rbookings&#45;&gt;RBookingRequest -->
<g id="edge12" class="edge">
<title>Rbookings&#45;&gt;RBookingRequest</title>
<path fill="none" stroke="black" d="M402.52,-1780.07C476.87,-1781.45 615.15,-1794.64 700.64,-1868 716.36,-1881.49 701.39,-1899.52 718.64,-1911 775.15,-1948.61 857,-1920.31 905.08,-1897.41"/>
<polygon fill="black" stroke="black" points="906.79,-1900.47 914.23,-1892.92 903.71,-1894.18 906.79,-1900.47"/>
<text text-anchor="middle" x="761.64" y="-1932.8" font-family="Times,serif" font-size="14.00">rdfs:domain</text>
</g>
<!-- Rbookings&#45;&gt;RBooking -->
<g id="edge13" class="edge">
<title>Rbookings&#45;&gt;RBooking</title>
<path fill="none" stroke="black" d="M402.58,-1781.95C514.77,-1783.54 774.51,-1784.39 804.64,-1759 832.84,-1735.23 803.78,-1709.69 822.64,-1678 844.18,-1641.8 882.4,-1611.58 910.3,-1592.79"/>
<polygon fill="black" stroke="black" points="912.53,-1595.51 918.97,-1587.1 908.69,-1589.66 912.53,-1595.51"/>
<text text-anchor="middle" x="761.64" y="-1778.8" font-family="Times,serif" font-size="14.00">rdfs:range</text>
</g>
<!-- Rbookings&#45;&gt;Rrdf:Property -->
<g id="edge11" class="edge">
<title>Rbookings&#45;&gt;Rrdf:Property</title>
<path fill="none" stroke="black" d="M400.68,-1776.08C515.37,-1764.41 791.19,-1734.94 804.64,-1720 850.17,-1669.45 788.76,-1167 822.64,-1108 838.06,-1081.14 867.21,-1062.45 893.13,-1050.33"/>
<polygon fill="black" stroke="black" points="894.79,-1053.42 902.5,-1046.15 891.95,-1047.02 894.79,-1053.42"/>
<text text-anchor="middle" x="761.64" y="-1741.8" font-family="Times,serif" font-size="14.00">rdf:type</text>
</g>
<!-- RrequestedAs -->
<g id="node11" class="node">
<title>RrequestedAs</title>
<ellipse fill="none" stroke="blue" cx="350.32" cy="-1667" rx="68.79" ry="18"/>
<text text-anchor="middle" x="350.32" y="-1663.3" font-family="Times,serif" font-size="14.00">requestedAs</text>
</g>
<!-- RrequestedAs&#45;&gt;RBookingRequest -->
<g id="edge15" class="edge">
<title>RrequestedAs&#45;&gt;RBookingRequest</title>
<path fill="none" stroke="black" d="M419.24,-1666.95C495.92,-1670.4 620.42,-1686.98 700.64,-1754 715.6,-1766.5 703.99,-1781.13 718.64,-1794 748.64,-1820.35 766.96,-1806.79 804.64,-1820 835.85,-1830.94 870.35,-1844.74 897.27,-1855.9"/>
<polygon fill="black" stroke="black" points="896.25,-1859.27 906.83,-1859.89 898.95,-1852.81 896.25,-1859.27"/>
<text text-anchor="middle" x="761.64" y="-1823.8" font-family="Times,serif" font-size="14.00">rdfs:domain</text>
</g>
<!-- RrequestedAs&#45;&gt;RBooking -->
<g id="edge16" class="edge">
<title>RrequestedAs&#45;&gt;RBooking</title>
<path fill="none" stroke="black" d="M416.11,-1672.46C505.32,-1678.05 670.22,-1681.45 804.64,-1645 844.3,-1634.25 885.5,-1611.02 912.82,-1593.64"/>
<polygon fill="black" stroke="black" points="915.04,-1596.37 921.53,-1587.99 911.23,-1590.5 915.04,-1596.37"/>
<text text-anchor="middle" x="761.64" y="-1665.8" font-family="Times,serif" font-size="14.00">rdfs:range</text>
</g>
<!-- RrequestedAs&#45;&gt;Rrdf:Property -->
<g id="edge14" class="edge">
<title>RrequestedAs&#45;&gt;Rrdf:Property</title>
<path fill="none" stroke="black" d="M416.11,-1661.65C535.37,-1651.14 779.79,-1626.25 804.64,-1597 839.84,-1555.56 795.39,-1155.05 822.64,-1108 838.22,-1081.1 867.52,-1062.37 893.49,-1050.24"/>
<polygon fill="black" stroke="black" points="895.16,-1053.33 902.87,-1046.07 892.31,-1046.93 895.16,-1053.33"/>
<text text-anchor="middle" x="761.64" y="-1626.8" font-family="Times,serif" font-size="14.00">rdf:type</text>
</g>
<!-- RhasPlaces -->
<g id="node12" class="node">
<title>RhasPlaces</title>
<ellipse fill="none" stroke="blue" cx="350.32" cy="-907" rx="56.59" ry="18"/>
<text text-anchor="middle" x="350.32" y="-903.3" font-family="Times,serif" font-size="14.00">hasPlaces</text>
</g>
<!-- RhasPlaces&#45;&gt;RCottage -->
<g id="edge18" class="edge">
<title>RhasPlaces&#45;&gt;RCottage</title>
<path fill="none" stroke="black" d="M397.6,-897.08C512.88,-872.37 803.74,-809.93 804.64,-809 837.39,-774.81 796.24,-743.31 822.64,-704 841.35,-676.14 874.08,-656.56 900.9,-644.26"/>
<polygon fill="black" stroke="black" points="902.37,-647.44 910.11,-640.21 899.55,-641.03 902.37,-647.44"/>
<text text-anchor="middle" x="761.64" y="-829.8" font-family="Times,serif" font-size="14.00">rdfs:domain</text>
</g>
<!-- RhasPlaces&#45;&gt;Rrdf:Property -->
<g id="edge17" class="edge">
<title>RhasPlaces&#45;&gt;Rrdf:Property</title>
<path fill="none" stroke="black" d="M396.98,-896.82C480.96,-880.28 664.16,-854.51 804.64,-908 856.19,-927.63 900.95,-975.88 925.2,-1006.07"/>
<polygon fill="black" stroke="black" points="922.55,-1008.37 931.48,-1014.07 928.05,-1004.05 922.55,-1008.37"/>
<text text-anchor="middle" x="761.64" y="-911.8" font-family="Times,serif" font-size="14.00">rdf:type</text>
</g>
<!-- Rxsd:nonNegativeInteger -->
<g id="node13" class="node">
<title>Rxsd:nonNegativeInteger</title>
<ellipse fill="none" stroke="blue" cx="945.48" cy="-1135" rx="122.68" ry="18"/>
<text text-anchor="middle" x="945.48" y="-1131.3" font-family="Times,serif" font-size="14.00">xsd:nonNegativeInteger</text>
</g>
<!-- RhasPlaces&#45;&gt;Rxsd:nonNegativeInteger -->
<g id="edge19" class="edge">
<title>RhasPlaces&#45;&gt;Rxsd:nonNegativeInteger</title>
<path fill="none" stroke="black" d="M402.01,-899.63C475.73,-891.82 613.22,-888.6 700.64,-956 717.04,-968.65 703.03,-985.37 718.64,-999 748.44,-1025.02 774.11,-996.83 804.64,-1022 818.75,-1033.64 810.4,-1045.41 822.64,-1059 843.12,-1081.76 871.99,-1100.17 896.49,-1113.17"/>
<polygon fill="black" stroke="black" points="895.14,-1116.41 905.64,-1117.88 898.35,-1110.19 895.14,-1116.41"/>
<text text-anchor="middle" x="761.64" y="-1025.8" font-family="Times,serif" font-size="14.00">rdfs:range</text>
</g>
<!-- RhasBedrooms -->
<g id="node14" class="node">
<title>RhasBedrooms</title>
<ellipse fill="none" stroke="blue" cx="350.32" cy="-1097" rx="73.39" ry="18"/>
<text text-anchor="middle" x="350.32" y="-1093.3" font-family="Times,serif" font-size="14.00">hasBedrooms</text>
</g>
<!-- RhasBedrooms&#45;&gt;RCottage -->
<g id="edge21" class="edge">
<title>RhasBedrooms&#45;&gt;RCottage</title>
<path fill="none" stroke="black" d="M418.76,-1090.34C541.88,-1077.88 791.66,-1051.02 804.64,-1037 829.8,-1009.8 803.79,-735.9 822.64,-704 839.71,-675.1 872.52,-655.58 899.8,-643.56"/>
<polygon fill="black" stroke="black" points="901.31,-646.72 909.18,-639.62 898.6,-640.27 901.31,-646.72"/>
<text text-anchor="middle" x="761.64" y="-1059.8" font-family="Times,serif" font-size="14.00">rdfs:domain</text>
</g>
<!-- RhasBedrooms&#45;&gt;Rrdf:Property -->
<g id="edge20" class="edge">
<title>RhasBedrooms&#45;&gt;Rrdf:Property</title>
<path fill="none" stroke="black" d="M423.38,-1099.01C513.32,-1100.27 671.53,-1098.32 804.64,-1075 835.83,-1069.54 869.81,-1059.19 896.47,-1050.02"/>
<polygon fill="black" stroke="black" points="897.65,-1053.31 905.94,-1046.71 895.34,-1046.71 897.65,-1053.31"/>
<text text-anchor="middle" x="761.64" y="-1090.8" font-family="Times,serif" font-size="14.00">rdf:type</text>
</g>
<!-- RhasBedrooms&#45;&gt;Rxsd:nonNegativeInteger -->
<g id="edge22" class="edge">
<title>RhasBedrooms&#45;&gt;Rxsd:nonNegativeInteger</title>
<path fill="none" stroke="black" d="M421.69,-1101.51C520.49,-1107.84 701.75,-1119.45 822.7,-1127.2"/>
<polygon fill="black" stroke="black" points="822.55,-1130.7 832.75,-1127.84 822.99,-1123.71 822.55,-1130.7"/>
<text text-anchor="middle" x="761.64" y="-1129.8" font-family="Times,serif" font-size="14.00">rdfs:range</text>
</g>
<!-- RhasClosestCity -->
<g id="node15" class="node">
<title>RhasClosestCity</title>
<ellipse fill="none" stroke="blue" cx="350.32" cy="-527" rx="79.89" ry="18"/>
<text text-anchor="middle" x="350.32" y="-523.3" font-family="Times,serif" font-size="14.00">hasClosestCity</text>
</g>
<!-- RhasClosestCity&#45;&gt;RCottage -->
<g id="edge24" class="edge">
<title>RhasClosestCity&#45;&gt;RCottage</title>
<path fill="none" stroke="black" d="M412.54,-515.62C501.4,-501.63 670.17,-484.7 804.64,-528 850.98,-542.92 895.04,-579.43 920.91,-603.96"/>
<polygon fill="black" stroke="black" points="918.72,-606.71 928.34,-611.15 923.59,-601.68 918.72,-606.71"/>
<text text-anchor="middle" x="761.64" y="-531.8" font-family="Times,serif" font-size="14.00">rdfs:domain</text>
</g>
<!-- RhasClosestCity&#45;&gt;Rrdf:Property -->
<g id="edge23" class="edge">
<title>RhasClosestCity&#45;&gt;Rrdf:Property</title>
<path fill="none" stroke="black" d="M430.56,-527.09C508.01,-531.28 624.99,-549.08 700.64,-614 716.36,-627.49 702.74,-643.72 718.64,-657 748.68,-682.09 776.98,-648.3 804.64,-676 831,-702.4 811,-722.55 822.64,-758 853.39,-851.67 905.32,-956.7 930.26,-1005.02"/>
<polygon fill="black" stroke="black" points="927.17,-1006.64 934.88,-1013.91 933.38,-1003.42 927.17,-1006.64"/>
<text text-anchor="middle" x="761.64" y="-679.8" font-family="Times,serif" font-size="14.00">rdf:type</text>
</g>
<!-- Rxsd:string -->
<g id="node16" class="node">
<title>Rxsd:string</title>
<ellipse fill="none" stroke="blue" cx="945.48" cy="-375" rx="57.69" ry="18"/>
<text text-anchor="middle" x="945.48" y="-371.3" font-family="Times,serif" font-size="14.00">xsd:string</text>
</g>
<!-- RhasClosestCity&#45;&gt;Rxsd:string -->
<g id="edge25" class="edge">
<title>RhasClosestCity&#45;&gt;Rxsd:string</title>
<path fill="none" stroke="black" d="M426.09,-521.18C536.38,-511.91 736.94,-492.23 804.64,-467 847.33,-451.09 890.18,-420.16 916.98,-398.58"/>
<polygon fill="black" stroke="black" points="919.24,-401.25 924.77,-392.2 914.81,-395.83 919.24,-401.25"/>
<text text-anchor="middle" x="761.64" y="-490.8" font-family="Times,serif" font-size="14.00">rdfs:range</text>
</g>
<!-- RhasBookerName -->
<g id="node17" class="node">
<title>RhasBookerName</title>
<ellipse fill="none" stroke="blue" cx="350.32" cy="-983" rx="87.18" ry="18"/>
<text text-anchor="middle" x="350.32" y="-979.3" font-family="Times,serif" font-size="14.00">hasBookerName</text>
</g>
<!-- RhasBookerName&#45;&gt;RBooking -->
<g id="edge27" class="edge">
<title>RhasBookerName&#45;&gt;RBooking</title>
<path fill="none" stroke="black" d="M435.13,-978.86C515.79,-979.83 634.92,-995.25 700.64,-1070 746.43,-1122.09 672.73,-1173.02 718.64,-1225 744.68,-1254.49 779.1,-1216.07 804.64,-1246 836.48,-1283.31 800.5,-1422.23 822.64,-1466 841.67,-1503.64 880.41,-1533.65 909.12,-1551.99"/>
<polygon fill="black" stroke="black" points="907.34,-1555 917.68,-1557.31 911.03,-1549.06 907.34,-1555"/>
<text text-anchor="middle" x="761.64" y="-1249.8" font-family="Times,serif" font-size="14.00">rdfs:domain</text>
</g>
<!-- RhasBookerName&#45;&gt;Rrdf:Property -->
<g id="edge26" class="edge">
<title>RhasBookerName&#45;&gt;Rrdf:Property</title>
<path fill="none" stroke="black" d="M429.78,-975.45C520.68,-968.47 674.63,-962.16 804.64,-984 837.67,-989.55 873.35,-1001.91 900.41,-1012.7"/>
<polygon fill="black" stroke="black" points="899.38,-1016.06 909.96,-1016.59 902.02,-1009.58 899.38,-1016.06"/>
<text text-anchor="middle" x="761.64" y="-987.8" font-family="Times,serif" font-size="14.00">rdf:type</text>
</g>
<!-- RhasBookerName&#45;&gt;Rxsd:string -->
<g id="edge28" class="edge">
<title>RhasBookerName&#45;&gt;Rxsd:string</title>
<path fill="none" stroke="black" d="M433.84,-977.72C557.7,-968.96 779.88,-949.71 804.64,-923 829,-896.72 812.9,-635.49 822.64,-601 844.75,-522.67 897.31,-441.1 925.63,-400.76"/>
<polygon fill="black" stroke="black" points="928.51,-402.75 931.45,-392.57 922.8,-398.69 928.51,-402.75"/>
<text text-anchor="middle" x="761.64" y="-951.8" font-family="Times,serif" font-size="14.00">rdfs:range</text>
</g>
<!-- RhasImage -->
<g id="node18" class="node">
<title>RhasImage</title>
<ellipse fill="none" stroke="blue" cx="350.32" cy="-299" rx="55.79" ry="18"/>
<text text-anchor="middle" x="350.32" y="-295.3" font-family="Times,serif" font-size="14.00">hasImage</text>
</g>
<!-- RhasImage&#45;&gt;RCottage -->
<g id="edge30" class="edge">
<title>RhasImage&#45;&gt;RCottage</title>
<path fill="none" stroke="black" d="M405.13,-295.32C518.66,-288.11 774.75,-274.86 804.64,-300 839.87,-329.63 807.52,-358.52 822.64,-402 849.38,-478.92 900,-561.14 926.8,-601.93"/>
<polygon fill="black" stroke="black" points="924.01,-604.06 932.45,-610.46 929.84,-600.19 924.01,-604.06"/>
<text text-anchor="middle" x="761.64" y="-303.8" font-family="Times,serif" font-size="14.00">rdfs:domain</text>
</g>
<!-- RhasImage&#45;&gt;Rrdf:Property -->
<g id="edge29" class="edge">
<title>RhasImage&#45;&gt;Rrdf:Property</title>
<path fill="none" stroke="black" d="M406.28,-298.15C481.46,-299.91 616.57,-313.86 700.64,-386 716.36,-399.49 702.74,-415.72 718.64,-429 748.68,-454.09 779.25,-418.2 804.64,-448 827.01,-474.26 814.5,-724.47 822.64,-758 845.9,-853.81 901.42,-957.81 928.74,-1005.45"/>
<polygon fill="black" stroke="black" points="925.77,-1007.31 933.81,-1014.21 931.83,-1003.8 925.77,-1007.31"/>
<text text-anchor="middle" x="761.64" y="-451.8" font-family="Times,serif" font-size="14.00">rdf:type</text>
</g>
<!-- RhasImage&#45;&gt;Rxsd:string -->
<g id="edge31" class="edge">
<title>RhasImage&#45;&gt;Rxsd:string</title>
<path fill="none" stroke="black" d="M399.23,-290.15C500.06,-272.33 730.93,-235.94 804.64,-262 853.65,-279.33 898.08,-321.94 923.14,-349.6"/>
<polygon fill="black" stroke="black" points="920.73,-352.16 929.99,-357.32 925.97,-347.51 920.73,-352.16"/>
<text text-anchor="middle" x="761.64" y="-265.8" font-family="Times,serif" font-size="14.00">rdfs:range</text>
</g>
<!-- RhasId -->
<g id="node19" class="node">
<title>RhasId</title>
<ellipse fill="none" stroke="blue" cx="350.32" cy="-1591" rx="36.29" ry="18"/>
<text text-anchor="middle" x="350.32" y="-1587.3" font-family="Times,serif" font-size="14.00">hasId</text>
</g>
<!-- RhasId&#45;&gt;RBooking -->
<g id="edge33" class="edge">
<title>RhasId&#45;&gt;RBooking</title>
<path fill="none" stroke="black" d="M386.65,-1589.87C485.52,-1586.7 765.73,-1577.73 887.17,-1573.84"/>
<polygon fill="black" stroke="black" points="887.49,-1577.33 897.37,-1573.51 887.27,-1570.33 887.49,-1577.33"/>
<text text-anchor="middle" x="761.64" y="-1581.8" font-family="Times,serif" font-size="14.00">rdfs:main</text>
</g>
<!-- RhasId&#45;&gt;Rrdf:Property -->
<g id="edge32" class="edge">
<title>RhasId&#45;&gt;Rrdf:Property</title>
<path fill="none" stroke="black" d="M383.89,-1583.99C487.72,-1561.65 804.2,-1493.51 804.64,-1493 832.3,-1460.31 800.99,-1144.95 822.64,-1108 838.35,-1081.18 867.66,-1062.45 893.59,-1050.3"/>
<polygon fill="black" stroke="black" points="895.26,-1053.39 902.97,-1046.12 892.41,-1047 895.26,-1053.39"/>
<text text-anchor="middle" x="761.64" y="-1512.8" font-family="Times,serif" font-size="14.00">rdf:type</text>
</g>
<!-- Rxsd:integer -->
<g id="node20" class="node">
<title>Rxsd:integer</title>
<ellipse fill="none" stroke="blue" cx="945.48" cy="-1705" rx="63.89" ry="18"/>
<text text-anchor="middle" x="945.48" y="-1701.3" font-family="Times,serif" font-size="14.00">xsd:integer</text>
</g>
<!-- RhasId&#45;&gt;Rxsd:integer -->
<g id="edge34" class="edge">
<title>RhasId&#45;&gt;Rxsd:integer</title>
<path fill="none" stroke="black" d="M385.15,-1585.74C452.59,-1577.21 605.44,-1567.9 700.64,-1640 716.5,-1652.02 702.57,-1669.25 718.64,-1681 742.36,-1698.35 815.01,-1703.63 871.58,-1705.02"/>
<polygon fill="black" stroke="black" points="871.51,-1708.52 881.58,-1705.23 871.66,-1701.52 871.51,-1708.52"/>
<text text-anchor="middle" x="761.64" y="-1704.8" font-family="Times,serif" font-size="14.00">rdfs:range</text>
</g>
<!-- RhasDistanceFromTheLake -->
<g id="node21" class="node">
<title>RhasDistanceFromTheLake</title>
<ellipse fill="none" stroke="blue" cx="350.32" cy="-755" rx="131.08" ry="18"/>
<text text-anchor="middle" x="350.32" y="-751.3" font-family="Times,serif" font-size="14.00">hasDistanceFromTheLake</text>
</g>
<!-- RhasDistanceFromTheLake&#45;&gt;RCottage -->
<g id="edge36" class="edge">
<title>RhasDistanceFromTheLake&#45;&gt;RCottage</title>
<path fill="none" stroke="black" d="M474.72,-749.17C567.13,-742.3 695.83,-727.38 804.64,-695 842.42,-683.76 882.74,-663.45 910.33,-648.13"/>
<polygon fill="black" stroke="black" points="912.18,-651.11 919.17,-643.15 908.74,-645.01 912.18,-651.11"/>
<text text-anchor="middle" x="761.64" y="-720.8" font-family="Times,serif" font-size="14.00">rdfs:domain</text>
</g>
<!-- RhasDistanceFromTheLake&#45;&gt;Rrdf:Property -->
<g id="edge35" class="edge">
<title>RhasDistanceFromTheLake&#45;&gt;Rrdf:Property</title>
<path fill="none" stroke="black" d="M413.31,-770.87C486.27,-789.46 611.12,-821.04 718.64,-847 756.78,-856.21 771.14,-846.55 804.64,-867 861.81,-901.9 907.2,-968.28 929.47,-1005.32"/>
<polygon fill="black" stroke="black" points="926.54,-1007.23 934.63,-1014.07 932.57,-1003.68 926.54,-1007.23"/>
<text text-anchor="middle" x="761.64" y="-870.8" font-family="Times,serif" font-size="14.00">rdf:type</text>
</g>
<!-- Rxsd:float -->
<g id="node22" class="node">
<title>Rxsd:float</title>
<ellipse fill="none" stroke="blue" cx="945.48" cy="-731" rx="50.09" ry="18"/>
<text text-anchor="middle" x="945.48" y="-727.3" font-family="Times,serif" font-size="14.00">xsd:float</text>
</g>
<!-- RhasDistanceFromTheLake&#45;&gt;Rxsd:float -->
<g id="edge37" class="edge">
<title>RhasDistanceFromTheLake&#45;&gt;Rxsd:float</title>
<path fill="none" stroke="black" d="M476.39,-749.94C602.03,-744.86 790.23,-737.24 885.18,-733.4"/>
<polygon fill="black" stroke="black" points="885.6,-736.89 895.45,-732.98 885.32,-729.89 885.6,-736.89"/>
<text text-anchor="middle" x="761.64" y="-743.8" font-family="Times,serif" font-size="14.00">rdfs:range</text>
</g>
<!-- RhasBookingDuration -->
<g id="node23" class="node">
<title>RhasBookingDuration</title>
<ellipse fill="none" stroke="blue" cx="350.32" cy="-1325" rx="105.08" ry="18"/>
<text text-anchor="middle" x="350.32" y="-1321.3" font-family="Times,serif" font-size="14.00">hasBookingDuration</text>
</g>
<!-- RhasBookingDuration&#45;&gt;RBooking -->
<g id="edge39" class="edge">
<title>RhasBookingDuration&#45;&gt;RBooking</title>
<path fill="none" stroke="black" d="M455.38,-1326.83C531.41,-1333.4 632.7,-1353.69 700.64,-1412 716.36,-1425.49 703.03,-1441.37 718.64,-1455 748.44,-1481.02 768.62,-1461.63 804.64,-1478 846.63,-1497.09 889.95,-1528.32 917.03,-1549.5"/>
<polygon fill="black" stroke="black" points="914.88,-1552.26 924.89,-1555.73 919.22,-1546.78 914.88,-1552.26"/>
<text text-anchor="middle" x="761.64" y="-1481.8" font-family="Times,serif" font-size="14.00">rdfs:domain</text>
</g>
<!-- RhasBookingDuration&#45;&gt;Rrdf:Property -->
<g id="edge38" class="edge">
<title>RhasBookingDuration&#45;&gt;Rrdf:Property</title>
<path fill="none" stroke="black" d="M441.47,-1315.92C570.04,-1302.57 792.03,-1277.83 804.64,-1265 829.25,-1239.95 803.88,-1137.69 822.64,-1108 839.3,-1081.63 868.79,-1062.88 894.58,-1050.6"/>
<polygon fill="black" stroke="black" points="896.23,-1053.7 903.88,-1046.37 893.33,-1047.33 896.23,-1053.7"/>
<text text-anchor="middle" x="761.64" y="-1285.8" font-family="Times,serif" font-size="14.00">rdf:type</text>
</g>
<!-- RhasBookingDuration&#45;&gt;Rxsd:nonNegativeInteger -->
<g id="edge40" class="edge">
<title>RhasBookingDuration&#45;&gt;Rxsd:nonNegativeInteger</title>
<path fill="none" stroke="black" d="M452.41,-1329.41C566.84,-1332.78 745.1,-1332.69 804.64,-1303 865.84,-1272.48 910.18,-1201.67 931.06,-1162.42"/>
<polygon fill="black" stroke="black" points="934.36,-1163.66 935.86,-1153.17 928.15,-1160.43 934.36,-1163.66"/>
<text text-anchor="middle" x="761.64" y="-1325.8" font-family="Times,serif" font-size="14.00">rdfs:range</text>
</g>
<!-- RhasAddress -->
<g id="node24" class="node">
<title>RhasAddress</title>
<ellipse fill="none" stroke="blue" cx="350.32" cy="-413" rx="64.19" ry="18"/>
<text text-anchor="middle" x="350.32" y="-409.3" font-family="Times,serif" font-size="14.00">hasAddress</text>
</g>
<!-- RhasAddress&#45;&gt;RCottage -->
<g id="edge42" class="edge">
<title>RhasAddress&#45;&gt;RCottage</title>
<path fill="none" stroke="black" d="M410.53,-406.31C517.6,-395.33 738.4,-378.06 804.64,-414 878.6,-454.13 919.71,-552.19 936.06,-600.37"/>
<polygon fill="black" stroke="black" points="932.82,-601.72 939.26,-610.13 939.47,-599.53 932.82,-601.72"/>
<text text-anchor="middle" x="761.64" y="-417.8" font-family="Times,serif" font-size="14.00">rdfs:domain</text>
</g>
<!-- RhasAddress&#45;&gt;Rrdf:Property -->
<g id="edge41" class="edge">
<title>RhasAddress&#45;&gt;Rrdf:Property</title>
<path fill="none" stroke="black" d="M414.79,-412.4C491.3,-415.01 619.65,-430.5 700.64,-500 716.36,-513.49 704.2,-528.14 718.64,-543 747.88,-573.11 780.13,-547.93 804.64,-582 827.59,-613.92 812.52,-720.01 822.64,-758 848,-853.27 902.51,-957.53 929.17,-1005.34"/>
<polygon fill="black" stroke="black" points="926.16,-1007.13 934.11,-1014.13 932.26,-1003.7 926.16,-1007.13"/>
<text text-anchor="middle" x="761.64" y="-585.8" font-family="Times,serif" font-size="14.00">rdf:type</text>
</g>
<!-- RhasAddress&#45;&gt;Rxsd:string -->
<g id="edge43" class="edge">
<title>RhasAddress&#45;&gt;Rxsd:string</title>
<path fill="none" stroke="black" d="M409.08,-405.45C481.32,-396.41 608.87,-381.76 718.64,-376 771.85,-373.21 832.22,-373.1 877.15,-373.61"/>
<polygon fill="black" stroke="black" points="877.31,-377.11 887.35,-373.74 877.4,-370.11 877.31,-377.11"/>
<text text-anchor="middle" x="761.64" y="-379.8" font-family="Times,serif" font-size="14.00">rdfs:range</text>
</g>
<!-- RhasDistanceToCity -->
<g id="node25" class="node">
<title>RhasDistanceToCity</title>
<ellipse fill="none" stroke="blue" cx="350.32" cy="-641" rx="96.68" ry="18"/>
<text text-anchor="middle" x="350.32" y="-637.3" font-family="Times,serif" font-size="14.00">hasDistanceToCity</text>
</g>
<!-- RhasDistanceToCity&#45;&gt;RCottage -->
<g id="edge45" class="edge">
<title>RhasDistanceToCity&#45;&gt;RCottage</title>
<path fill="none" stroke="black" d="M419.68,-628.33C508.44,-613.5 668.13,-592.37 804.64,-604 834.56,-606.55 867.7,-612.11 894.21,-617.24"/>
<polygon fill="black" stroke="black" points="893.53,-620.68 904.02,-619.18 894.89,-613.81 893.53,-620.68"/>
<text text-anchor="middle" x="761.64" y="-607.8" font-family="Times,serif" font-size="14.00">rdfs:domain</text>
</g>
<!-- RhasDistanceToCity&#45;&gt;Rrdf:Property -->
<g id="edge44" class="edge">
<title>RhasDistanceToCity&#45;&gt;Rrdf:Property</title>
<path fill="none" stroke="black" d="M445.51,-644.68C521.14,-651.97 626.57,-672.34 700.64,-728 713.37,-737.57 706.4,-748.79 718.64,-759 749.83,-785.03 773.47,-763.94 804.64,-790 875.54,-849.28 918.34,-954.3 935.61,-1004.19"/>
<polygon fill="black" stroke="black" points="932.4,-1005.61 938.91,-1013.96 939.03,-1003.37 932.4,-1005.61"/>
<text text-anchor="middle" x="761.64" y="-793.8" font-family="Times,serif" font-size="14.00">rdf:type</text>
</g>
<!-- RhasDistanceToCity&#45;&gt;Rxsd:float -->
<g id="edge46" class="edge">
<title>RhasDistanceToCity&#45;&gt;Rxsd:float</title>
<path fill="none" stroke="black" d="M419.79,-628.41C510.37,-614.58 673.83,-599.54 804.64,-642 814.02,-645.05 814.45,-649.5 822.64,-655 851.57,-674.44 885.25,-695.32 909.85,-710.26"/>
<polygon fill="black" stroke="black" points="908.12,-713.3 918.48,-715.49 911.74,-707.31 908.12,-713.3"/>
<text text-anchor="middle" x="761.64" y="-645.8" font-family="Times,serif" font-size="14.00">rdfs:range</text>
</g>
<!-- RhasStartDate -->
<g id="node26" class="node">
<title>RhasStartDate</title>
<ellipse fill="none" stroke="blue" cx="350.32" cy="-1439" rx="72.59" ry="18"/>
<text text-anchor="middle" x="350.32" y="-1435.3" font-family="Times,serif" font-size="14.00">hasStartDate</text>
</g>
<!-- RhasStartDate&#45;&gt;RBooking -->
<g id="edge48" class="edge">
<title>RhasStartDate&#45;&gt;RBooking</title>
<path fill="none" stroke="black" d="M399.8,-1452.23C469.86,-1471.09 603.61,-1506.18 718.64,-1531 777.3,-1543.66 845.11,-1555.61 890.99,-1563.31"/>
<polygon fill="black" stroke="black" points="890.57,-1566.79 901.01,-1564.98 891.73,-1559.88 890.57,-1566.79"/>
<text text-anchor="middle" x="761.64" y="-1550.8" font-family="Times,serif" font-size="14.00">rdfs:domain</text>
</g>
<!-- RhasStartDate&#45;&gt;Rrdf:Property -->
<g id="edge47" class="edge">
<title>RhasStartDate&#45;&gt;Rrdf:Property</title>
<path fill="none" stroke="black" d="M423.14,-1440.08C537.73,-1440.14 754.16,-1432.88 804.64,-1379 845.9,-1334.95 791.62,-1159.78 822.64,-1108 838.61,-1081.33 867.93,-1062.61 893.8,-1050.43"/>
<polygon fill="black" stroke="black" points="895.46,-1053.52 903.15,-1046.23 892.59,-1047.13 895.46,-1053.52"/>
<text text-anchor="middle" x="761.64" y="-1419.8" font-family="Times,serif" font-size="14.00">rdf:type</text>
</g>
<!-- Rxsd:date -->
<g id="node27" class="node">
<title>Rxsd:date</title>
<ellipse fill="none" stroke="blue" cx="945.48" cy="-1439" rx="50.09" ry="18"/>
<text text-anchor="middle" x="945.48" y="-1435.3" font-family="Times,serif" font-size="14.00">xsd:date</text>
</g>
<!-- RhasStartDate&#45;&gt;Rxsd:date -->
<g id="edge49" class="edge">
<title>RhasStartDate&#45;&gt;Rxsd:date</title>
<path fill="none" stroke="black" d="M423.16,-1439C541.49,-1439 775.17,-1439 884.91,-1439"/>
<polygon fill="black" stroke="black" points="885.13,-1442.5 895.13,-1439 885.13,-1435.5 885.13,-1442.5"/>
<text text-anchor="middle" x="761.64" y="-1442.8" font-family="Times,serif" font-size="14.00">rdfs:range</text>
</g>
<!-- RhasName -->
<g id="node28" class="node">
<title>RhasName</title>
<ellipse fill="none" stroke="blue" cx="350.32" cy="-223" rx="53.89" ry="18"/>
<text text-anchor="middle" x="350.32" y="-219.3" font-family="Times,serif" font-size="14.00">hasName</text>
</g>
<!-- RhasName&#45;&gt;RCottage -->
<g id="edge51" class="edge">
<title>RhasName&#45;&gt;RCottage</title>
<path fill="none" stroke="black" d="M400.95,-216.41C506.27,-203.61 747.16,-181.08 804.64,-234 832.26,-259.43 811.52,-366.14 822.64,-402 846.75,-479.78 898.49,-561.64 926.15,-602.15"/>
<polygon fill="black" stroke="black" points="923.43,-604.37 931.99,-610.61 929.19,-600.39 923.43,-604.37"/>
<text text-anchor="middle" x="761.64" y="-237.8" font-family="Times,serif" font-size="14.00">rdfs:domain</text>
</g>
<!-- RhasName&#45;&gt;Rrdf:Property -->
<g id="edge50" class="edge">
<title>RhasName&#45;&gt;Rrdf:Property</title>
<path fill="none" stroke="black" d="M399.88,-215.86C473.05,-207.89 612.37,-203.94 700.64,-272 717.04,-284.65 704.28,-300.07 718.64,-315 747.86,-345.38 781.18,-319.97 804.64,-355 829.58,-392.24 812.35,-714.37 822.64,-758 845.26,-853.96 901.09,-957.89 928.61,-1005.48"/>
<polygon fill="black" stroke="black" points="925.66,-1007.36 933.72,-1014.23 931.7,-1003.83 925.66,-1007.36"/>
<text text-anchor="middle" x="761.64" y="-358.8" font-family="Times,serif" font-size="14.00">rdf:type</text>
</g>
<!-- RhasName&#45;&gt;Rxsd:string -->
<g id="edge52" class="edge">
<title>RhasName&#45;&gt;Rxsd:string</title>
<path fill="none" stroke="black" d="M400.19,-216.14C509.96,-201.14 769.21,-168.14 804.64,-186 872.27,-220.09 915.32,-304.05 933.9,-347.68"/>
<polygon fill="black" stroke="black" points="930.74,-349.2 937.79,-357.1 937.21,-346.52 930.74,-349.2"/>
<text text-anchor="middle" x="761.64" y="-189.8" font-family="Times,serif" font-size="14.00">rdfs:range</text>
</g>
</g>
</svg>

